<?xml version="1.0" encoding="utf-8"?>
<!-- Generator: Adobe Illustrator 25.3.1, SVG Export Plug-In . SVG Version: 6.00 Build 0)  -->
<svg version="1.1" id="Layer_1" xmlns="http://www.w3.org/2000/svg" xmlns:xlink="http://www.w3.org/1999/xlink" x="0px" y="0px"
	 viewBox="0 0 225.7 78.6" style="enable-background:new 0 0 225.7 78.6;" xml:space="preserve">
<style type="text/css">
	.st0{fill:#F7A80A;}
	.st1{fill:#012169;}
</style>
<path class="st0" d="M55.2,63.8c-5.1,8.8-14.7,14.8-25.6,14.8C13.3,78.6,0,65.4,0,49.1s13.3-29.6,29.6-29.6c10.9,0,20.5,6,25.6,14.8
	l-5.8,3.3c-4-6.8-11.4-11.4-19.8-11.4C17,26.2,6.7,36.5,6.7,49.1S17,72,29.6,72c8.5,0,15.9-4.6,19.8-11.5L55.2,63.8z"/>
<path class="st1" d="M41.7,56.1c-2.5,4.3-7.2,7-12.2,7c-7.7,0-14-6.3-14-14s6.3-14,14-14c5,0,9.6,2.7,12.2,7l5.3-3
	c-3.6-6.3-10.3-10.2-17.5-10.2c-11.1,0-20.1,9-20.1,20.1s9,20.1,20.1,20.1c7.2,0,13.8-3.9,17.4-10.1L41.7,56.1z"/>
<polygon class="st1" points="60.4,49.1 48.4,42.2 48.4,56 "/>
<g>
	<path class="st1" d="M90,58.6c3.5,0,6.2-1.8,7.9-5.5h8.8c-0.9,3.9-2.9,7-6,9.4S94.1,66,90.1,66c-4.8,0-8.9-1.7-12.3-5
		s-5-7.4-5-12.2s1.7-8.8,5-12.1c3.3-3.3,7.4-4.9,12.2-4.9c6.4,0,11.2,2.6,14.6,7.9c1.2,1.8,1.9,3.5,2.1,5.2h-8.8
		c-0.7-1.8-1.7-3.2-3.1-4.2s-3.1-1.5-4.9-1.5c-2.5,0-4.6,0.9-6.3,2.8c-1.7,1.9-2.5,4.1-2.5,6.8c0,2.8,0.8,5,2.5,6.9
		C85.4,57.7,87.5,58.6,90,58.6z"/>
	<path class="st1" d="M118.8,65.4h-8.4V32.6h8.4V65.4z"/>
	<path class="st1" d="M132.6,65.4h-8V32.6H135c2.8,0,4.9,0.2,6.3,0.5c1.4,0.3,2.7,1,3.8,1.9c2.7,2.2,4,5.2,4,9c0,2.7-0.7,5-2.2,6.9
		s-3.5,3-6,3.4l8.9,11.2h-9.6l-7.6-10.7L132.6,65.4L132.6,65.4z M132.6,40v9.1h3c3.6,0,5.5-1.5,5.5-4.6c0-3-1.8-4.5-5.4-4.5H132.6z"
		/>
	<path class="st1" d="M165.7,65.4h-8.4V40h-6.5v-7.4h21.4V40h-6.5V65.4L165.7,65.4z"/>
	<path class="st1" d="M193.1,65.4h-18.2V32.6h18.2V40h-10.2v5h9.9v7.5h-9.9V58h10.2V65.4z"/>
	<path class="st1" d="M206.8,65.4h-8.4V32.6h8.4v14.8l9.4-14.8h8.8L214.1,49l11.6,16.5h-9.9l-9-14.2L206.8,65.4L206.8,65.4z"/>
</g>
</svg>
