<?xml version="1.0" encoding="UTF-8"?> <svg xmlns="http://www.w3.org/2000/svg" id="Слой_1" data-name="Слой 1" viewBox="0 0 725 125"><defs><style>.cls-1{fill:#4da2ff;}.cls-2{fill:#00b050;}.cls-3{fill:#bbddef;}.cls-4{fill:#fff;}</style></defs><path class="cls-1" d="M145.53,99.66V28.49h15.06V99.66Z"></path><path class="cls-1" d="M227.41,99.66H212.6V67.87c0-3.92-.7-6.86-2.09-8.84s-3.61-3-6.65-2.94q-6.23,0-9,4.17t-2.77,13.79V99.66H177.3V45.24h11.31l2,7h.83a15.73,15.73,0,0,1,6.82-6,23.18,23.18,0,0,1,9.88-2q9.47,0,14.37,5.13t4.91,14.82Z"></path><path class="cls-1" d="M280.54,83.5q0,8.37-5.82,12.76t-17.36,4.38a53.33,53.33,0,0,1-10.09-.82,37.68,37.68,0,0,1-7.82-2.36V85.2a50.3,50.3,0,0,0,9.3,3.26,37.41,37.41,0,0,0,9.1,1.33q8.1,0,8.1-4.68a3.87,3.87,0,0,0-1.07-2.85,15.46,15.46,0,0,0-3.73-2.51c-1.74-.92-4.08-2-7-3.23a44.45,44.45,0,0,1-9.2-4.79,13.82,13.82,0,0,1-4.27-5.14,17.1,17.1,0,0,1-1.34-7.13A13,13,0,0,1,245,48.18q5.61-4,15.9-4A45.14,45.14,0,0,1,280,48.5l-4.47,10.7c-2.72-1.16-5.27-2.11-7.63-2.86a23.94,23.94,0,0,0-7.23-1.12c-4.37,0-6.56,1.19-6.56,3.55a4.19,4.19,0,0,0,2.12,3.45,57.62,57.62,0,0,0,9.24,4.34,43.37,43.37,0,0,1,9.33,4.81,14.27,14.27,0,0,1,4.37,5.17A15.93,15.93,0,0,1,280.54,83.5Z"></path><path class="cls-1" d="M321.9,100.64q-9.56,0-15-7h-.78c.52,4.54.78,7.16.78,7.88v22.08H292.09V45.24h12l2.09,7h.68q5.19-8.09,15.39-8.08a17.6,17.6,0,0,1,15.05,7.45q5.43,7.44,5.44,20.69a40.94,40.94,0,0,1-2.55,15.14A21.2,21.2,0,0,1,333,97.28,18.53,18.53,0,0,1,321.9,100.64Zm-4.37-44.55c-3.65,0-6.33,1.13-8,3.39s-2.55,6-2.62,11.17v1.61q0,8.76,2.6,12.56t8.23,3.79q9.94,0,10-16.45,0-8-2.45-12T317.53,56.09Z"></path><path class="cls-1" d="M379.59,100.64q-13.11,0-20.49-7.25t-7.38-20.55q0-13.68,6.82-21.15t18.86-7.47q11.52,0,17.93,6.57T401.74,69v7.2h-35q.24,6.31,3.74,9.88t9.81,3.55a40.28,40.28,0,0,0,9.28-1,46.65,46.65,0,0,0,9.13-3.26V96.81a34.67,34.67,0,0,1-8.3,2.9A52.9,52.9,0,0,1,379.59,100.64ZM377.5,54.78a9.38,9.38,0,0,0-7.38,3q-2.67,3-3.06,8.5h20.79c-.06-3.67-1-6.5-2.86-8.5A9.74,9.74,0,0,0,377.5,54.78Z"></path><path class="cls-1" d="M435.82,100.64q-25.33,0-25.34-27.9,0-13.87,6.89-21.2t19.76-7.32a37.45,37.45,0,0,1,16.9,3.7l-4.37,11.49q-3.5-1.42-6.51-2.32a21.07,21.07,0,0,0-6-.9q-11.55,0-11.55,16.46,0,16,11.55,16a26.26,26.26,0,0,0,7.92-1.14,28.5,28.5,0,0,0,7.28-3.58V96.6a23.74,23.74,0,0,1-7.26,3.16A40.7,40.7,0,0,1,435.82,100.64Z"></path><path class="cls-1" d="M487.78,88.78a32.21,32.21,0,0,0,9.33-1.69v11a33.06,33.06,0,0,1-13.61,2.49q-8.88,0-12.94-4.5t-4-13.52V56.39h-7.09V50.1l8.16-5L471.9,33.6h9.47V45.24h15.21V56.39H481.37V82.62a5.84,5.84,0,0,0,1.77,4.68A7,7,0,0,0,487.78,88.78Z"></path><path class="cls-1" d="M568.26,99.66h-15V69H525.13V99.66h-15V28.49h15v27.9h28.11V28.49h15Z"></path><path class="cls-1" d="M650.6,64q0,17.67-8.74,27.16t-25,9.5q-16.32,0-25.05-9.5T583,63.88q0-17.76,8.76-27.09t25.13-9.37q16.36,0,25,9.44T650.6,64Zm-51.8,0q0,11.93,4.51,18t13.5,6q18,0,18-24T616.9,39.88q-9,0-13.55,6T598.8,64Z"></path><path class="cls-1" d="M708.78,99.66l-5.14-16.9H677.76L672.6,99.7H656.38l25.07-71.46h18.4L725,99.66ZM700,70.06Q692.86,47,692,44t-1.29-4.77q-1.62,6.22-9.18,30.81Z"></path><path class="cls-2" d="M60.43,77.71A25.4,25.4,0,0,1,79,85.78V12L61.93,1a2.89,2.89,0,0,0-3.1,0l-17,11V85.77A25.37,25.37,0,0,1,60.43,77.71Z"></path><path class="cls-3" d="M.51,42.39A2.85,2.85,0,0,0,2.8,43.63H7.72a2.88,2.88,0,0,1,2.87,2.87V96.81a2.87,2.87,0,0,0,2.86,2.87H34.87V16.54L1.24,38.39A2.87,2.87,0,0,0,.51,42.39Z"></path><path class="cls-1" d="M119.55,38.35,85.94,16.54V99.66h21.4a2.88,2.88,0,0,0,2.87-2.85V46.54A2.87,2.87,0,0,1,113,43.63h5a2.87,2.87,0,0,0,1.56-5.28Z"></path><path class="cls-2" d="M79,93.29a21.19,21.19,0,1,0,2.52,10A21.16,21.16,0,0,0,79,93.29ZM59,111.72a2.21,2.21,0,0,1-1.59.7h0a2.3,2.3,0,0,1-1.58-.67l-7-7.27A2.21,2.21,0,0,1,52,101.41l5.39,5.6,6.89-7.35,4.44-4.76a2.21,2.21,0,0,1,3.22,3l-1.64,1.75Z"></path><path class="cls-4" d="M71.86,95a2.22,2.22,0,0,0-3.12-.06L64.3,99.66,57.41,107,52,101.41a2.21,2.21,0,0,0-3.17,3.07l7,7.27a2.3,2.3,0,0,0,1.58.67h0a2.21,2.21,0,0,0,1.59-.7L70.32,99.66,72,97.91A2.23,2.23,0,0,0,71.86,95Z"></path></svg> 